<?xml version="1.0" standalone="no"?>
<!DOCTYPE svg PUBLIC "-//W3C//DTD SVG 20010904//EN"
 "http://www.w3.org/TR/2001/REC-SVG-20010904/DTD/svg10.dtd">
<svg version="1.0" xmlns="http://www.w3.org/2000/svg"
 width="400.000000pt" height="400.000000pt" viewBox="0 0 400.000000 400.000000"
 preserveAspectRatio="xMidYMid meet">
<metadata>
Created by potrace 1.14, written by Peter Selinger 2001-2017
</metadata>
<g transform="translate(0.000000,400.000000) scale(0.100000,-0.100000)"
fill="#000000" stroke="none">
<path d="M0 2000 l0 -2000 2000 0 2000 0 0 2000 0 2000 -2000 0 -2000 0 0
-2000z m2100 15 l0 -925 -77 0 -78 1 -87 146 -87 146 -27 -57 c-83 -176 -267
-276 -483 -263 -280 17 -490 193 -573 483 -32 114 -32 324 0 438 56 195 170
341 326 416 230 111 490 87 637 -60 l49 -49 0 324 0 325 200 0 200 0 0 -925z
m840 675 l0 -250 205 0 205 0 0 -75 0 -75 -205 0 -205 0 0 -600 0 -600 -200 0
-200 0 0 600 0 600 -120 0 -120 0 0 75 0 75 120 0 120 0 0 250 0 250 200 0
200 0 0 -250z"/>
<path d="M1262 2254 c-87 -43 -139 -122 -177 -269 -25 -96 -26 -340 -1 -440
48 -196 145 -295 290 -295 82 0 131 17 185 66 195 176 184 722 -19 901 -76 68
-187 82 -278 37z"/>
</g>
</svg>
